# xmcd
#
# Track frame offsets: 
#        150
#        11717
#        25900
#        37269
#        48463
#        61316
#        73978
#        86774
#        99005
#        112079
#        124869
#        137272
#        149039
#        160975
#        171852
#        192321
#        206001
#        220505
#        237249
#        253556
#        269691
#        287124
#        302504
#        318578
#
# Disc length: 4480 seconds
#
# Revision: 0
# Processed by: cddbd v1.5.1PL0 Copyright (c) Steve Scherf et al.
# Submitted via: ExactAudioCopy v0.95a5
#
DISCID=6f117e18
DTITLE=Various Artist - Black and White Piano Vol. 2: 1929-1942
DYEAR=1900
DGENRE=
TTITLE0=Alex Hill - Stompin' 'Em Down
TTITLE1=Alex Hill - Tack Head Blues
TTITLE2=Frank Melrose - Pass the Jug
TTITLE3=Frank Melrose - Jelly Roll Stomp
TTITLE4=Kansas City Frank - Jelly Roll Stomp
TTITLE5=Kansas City Frank - Pass the Jug
TTITLE6=Broadway Rastus - Rock My Soul
TTITLE7=Broadway Rastus - Whoopee Stomp
TTITLE8=Kansas City Frank and His Footwarmers - Wailing Blues
TTITLE9=Kansas City Frank and His Footwarmers - St. James' Infirmary B
TTITLE9=lues
TTITLE10=Frank Melrose - Market Street Jive
TTITLE11=Frank Melrose - Piano Breakdown
TTITLE12=Frank Melrose - Whoopee Stomp
TTITLE13=Frank Melrose - Distant Moan
TTITLE14=Frank Melrose - Cosmics
TTITLE15=Smith and Irvine - Lonesome Road Blues
TTITLE16=Cassino Simpson - Tea for Two
TTITLE17=Cassino Simpson - It Don't Mean a Thing (2 parts)
TTITLE18=Cassino Simpson - Blue Variations
TTITLE19=Cassino Simpson - Variations
TTITLE20=Cassino Simpson - Moonglow
TTITLE21=Cassino Simpson - Song of the Wanderer
TTITLE22=Cassino Simpson - Little Joe
TTITLE23=Cassino Simpson - Lost in a Fog
EXTD=
EXTT0=
EXTT1=
EXTT2=
EXTT3=
EXTT4=
EXTT5=
EXTT6=
EXTT7=
EXTT8=
EXTT9=
EXTT10=
EXTT11=
EXTT12=
EXTT13=
EXTT14=
EXTT15=
EXTT16=
EXTT17=
EXTT18=
EXTT19=
EXTT20=
EXTT21=
EXTT22=
EXTT23=
PLAYORDER=
